<?xml version="1.0" encoding="utf-8"?>
<!-- Generator: Adobe Illustrator 27.6.1, SVG Export Plug-In . SVG Version: 6.00 Build 0)  -->
<svg version="1.1" id="Слой_1" xmlns="http://www.w3.org/2000/svg" xmlns:xlink="http://www.w3.org/1999/xlink" x="0px" y="0px"
	 viewBox="0 0 816.6 414.2" style="enable-background:new 0 0 816.6 414.2;" xml:space="preserve">
<style type="text/css">
	.st0{fill-rule:evenodd;clip-rule:evenodd;fill:#FFFFFF;}
</style>
<g>
	<path class="st0" d="M516.2,148.4l0.1-0.1c2.1-2.3,3.8-4.4,5-6.3c0.6-0.9,1.3-2,1.7-3c0.4-0.9,0.9-2.5,0.9-4.4c0-3.9-2.3-6.6-3.8-8
		c-2-2-5.3-4.7-9.7-4.7c-3.6,0-6.7,1.8-8.9,3.4l-0.1,0.1l-0.1,0.1c-1.5,1.1-5.5,5-11.6,11c-6.3,6.1-15.1,15-26.6,26.5
		c-14.7,14.7-24.2,24.4-28.4,29.1c-2.2,2.4-4,4.6-5.2,6.5c-0.6,0.9-1.2,2-1.8,3c-0.4,0.9-1,2.5-1,4.4c0,1.6,0.4,3,0.9,4.3v0.2
		l0.3,0.5l0.3,0.6l0.3,0.3l0.2,0.4c0.4,0.5,0.8,1,0.8,1.1c0.2,0.2,0.4,0.4,0.6,0.6c0.4,0.5,1.1,1.1,1.9,2c1.6,1.7,4,4.1,7.1,7.2
		c6.1,6.3,15.3,15.4,27.4,27.5l34.7,34.3l0.2,0.1c2,1.8,3.9,3.3,5.4,4.4c0.8,0.5,1.7,1.1,2.6,1.6c0.7,0.3,2.3,1,4.3,1
		c3.8,0,7.1-1.5,9.7-4.1c2.6-2.6,4.1-5.9,4.1-9.7c0-2.1-0.7-3.6-1.1-4.4c-0.5-0.9-1-1.8-1.7-2.6c-1.1-1.6-2.7-3.3-4.6-5.4
		c-3.8-4.2-17.1-17.2-32.2-32.1l-28.3-28.8l28.6-28.6C502.8,162.1,512.2,152.6,516.2,148.4z"/>
	<path class="st0" d="M398.1,209.7c-5.9-6.5-13-11.2-21.2-14h-0.1h-0.1c-5.2-1.7-13.5-2.4-24.1-2.6c-5.5-0.1-9.8-0.4-12.9-0.7
		c-8.4-1.3-17.2-12.2-16.8-20.4c0.3-6.6,1.8-11.3,4.6-14.6c3.1-3.3,6.9-5.6,11.7-6.8c0.9-0.2,2-0.3,2.9-0.4c4-0.2,12.6-0.4,26.6-0.4
		c8.1,0,14.4-0.1,18.9-0.2c2.2-0.1,4.1-0.1,5.4-0.2c0.7,0,1.4-0.1,2-0.2c0.4,0,1.4-0.2,2.3-0.5l0.2-0.1l0.2-0.1
		c4.3-1.7,5.9-5.5,6.7-8.2c0.6-2.4,0.9-5.4-0.2-8.4c-1.5-4.2-4.7-7.2-9.2-8.2c-1.8-0.4-4.4-0.5-7.2-0.6c-0.1,0-45.3,0.4-51.5,0.5
		c-12.2,0.7-22,7.2-29.8,16.5c-7.6,9.1-11.4,19.7-11.4,31.6c0,17.9,8,32,23.4,41.8c7.7,5.1,19.8,7.2,34.8,7.6
		c5.7,0.2,10.2,0.5,13.4,0.9c3.6,0.4,7.2,1.9,10,4.3c1.6,1.4,2.8,2.9,3.9,4.5c1.9,3,2.9,6.9,2.9,11.9c0,4.7-1.3,8.6-3.5,12.1v0.1
		v0.1c-2.8,4.2-10.1,9.4-16.3,9.4l-15.5,0.2c-14,0-120.3,0-124.5,0c-2,0-3.4,0-4.5,0c-1.1,0-8.4-0.3-10.4-0.4
		c-9.7-0.5-17.2-6.6-24.5-13.3c-7.3-6.8-12.5-14.9-15.5-24.5c-1.5-4.8-2.3-10.5-2.3-17.4c0-10.1,1.8-18.8,5.2-25.9
		c3.2-7,7.9-13.1,14.3-18.2h0.1c6.5-5.4,13.3-9.2,20.7-11.4h0.1h0.1c2.5-0.7,5.9-1.4,10.5-1.6c0,0,0.1,0,0.3,0c0.3,0,0.6,0,1,0
		c0.8,0,2.1,0,3.4,0c2.8,0,6.4,0,9.9,0c7.2,0,14.4,0,15.2,0c8.6,0,16.9-5,16.9-13.9c0-9-8.2-14.1-16.8-14.1c-1.9,0-29.9,0-30.8,0
		c-14.2,0.7-27.1,4.7-38.7,12.2c-10.4,6.6-19,15-25.5,25c-9.3,14.3-13.9,30.5-13.9,48.5c0,4.5,0.3,8.9,1,13.3v0.1v0.1
		c3.8,20.6,13.2,37.7,28.3,51.1c14.5,12.3,30.8,17.6,48.5,18.4c1.1,0.1,140.9,0,143.3,0c2.2,0,10.7-1.3,12.1-1.6
		c10.7-1.9,19.9-7.5,27.5-16.4c7.9-9.2,11.8-20,11.8-32.3c0-3.5-0.4-7-1.1-10.3C408.1,223.3,404.1,216.1,398.1,209.7z"/>
	<path class="st0" d="M677.6,133.9c-0.5-2.7-2.1-5.8-3.6-7.5l-0.3-0.3c-2.3-2.3-5.5-4.3-9.7-4.3c-4.5,0-8.3,3.2-10.2,5.8l-7.6,9.7
		c-5,6-10.3,12.6-16.2,19.7c-5.8,7.1-11.2,13.7-16.2,19.7c-0.6,0.7-1.3,1.5-1.8,2.1c-0.5-0.6-1.1-1.3-1.7-2
		c-5-6-10.3-12.6-16.2-19.7c-5.8-7.1-11.2-13.7-16.2-19.7l-7.6-9.7c-2.3-2.9-6-5.9-10.6-5.9c-4.2,0-7.4,2.1-9.7,4.4l-0.3,0.3
		c-1.6,1.8-2.7,4.8-3.2,7.5c-0.5,2.8-0.1,5.5,1.1,7.9c0.2,0.3,0.3,0.6,0.4,0.6c0.1,0.1,0.1,0.2,0.2,0.3c0.1,0.1,0.2,0.2,0.2,0.3
		c0.1,0.2,0.3,0.4,0.4,0.6c0.3,0.4,0.7,1,1.4,1.8c1.1,1.5,2.8,3.5,5,6.4c4.4,5.5,10.8,13.8,19.5,24.7l23.1,28.8v33
		c0,17.8,0.1,35.2,0.3,39.4v0.2v0.2c0.3,2.4,0.7,4.8,1.8,7c1,2.2,2.8,4.6,5.9,5.8c1.5,0.6,3,1,4.6,1.1c2.6,0.3,5.2,0,7.7-1
		c3-1.3,4.9-3.6,5.9-5.8c1-2.2,1.6-4.6,1.8-7v-0.2v-0.2c0.2-4.2,0.3-21.6,0.3-39.4v-33.1l10.7-12.8c3.2-4.2,5.9-7.6,8-10.5l4.3-5.3
		c8.7-10.9,15.1-19.2,19.5-24.7c2.2-2.8,3.9-4.9,5-6.4c0.5-0.7,1-1.4,1.4-1.8c0.2-0.2,0.3-0.4,0.4-0.6c0.1-0.1,0.1-0.2,0.2-0.3
		c0-0.1,0.1-0.1,0.2-0.3c0-0.1,0.2-0.3,0.4-0.6C677.7,139.5,678.2,136.8,677.6,133.9z"/>
</g>
</svg>
